# AST/ASF file generated using VICON BodyLanguage
# -----------------------------------------------
:version 1.10
:name VICON
:units
  mass 1.0
  length 0.45
  angle deg
:documentation
   .ast/.asf automatically generated from VICON data using
   VICON BodyBuilder and BodyLanguage model FoxedUp or BRILLIANT.MOD
:root
   order TX TY TZ RX RY RZ
   axis XYZ
   position 0 0 0  
   orientation 0 0 0 
:bonedata
  begin
     id 1 
     name lhipjoint
     direction 0.576517 -0.752066 0.319413 
     length 2.45433 
     axis 0 0 0  XYZ
  end
  begin
     id 2 
     name lfemur
     direction 0.34202 -0.939693 0  
     length 7.54459  
     axis 0 0 20  XYZ
    dof rx ry rz
    limits (-160.0 20.0)
           (-70.0 70.0)
           (-60.0 70.0)
  end
  begin
     id 3 
     name ltibia
     direction 0.34202 -0.939693 0   
     length 7.73986   
     axis 0 0 20   XYZ
    dof rx
    limits (-10.0 170.0)
  end
  begin
     id 4 
     name lfoot
     direction 0.090693 -0.249177 0.964202   
     length 2.28437   
     axis -90 7.62852e-016 20   XYZ
    dof rx rz
    limits (-45.0 90.0)
           (-70.0 20.0)
  end
  begin
     id 5 
     name ltoes
     direction 1.5356e-011 -4.21928e-011 1   
     length 1.14243   
     axis -90 7.62852e-016 20   XYZ
    dof rx
    limits (-90.0 20.0)
  end
  begin
     id 6 
     name rhipjoint
     direction -0.573937 -0.753736 0.320122   
     length 2.44889  
     axis 0 0 0  XYZ 
  end
  begin
     id 7 
     name rfemur
     direction -0.34202 -0.939693 0   
     length 7.50166   
     axis 0 0 -20   XYZ
    dof rx ry rz
    limits (-160.0 20.0)
           (-70.0 70.0)
           (-70.0 60.0)
  end
  begin
     id 8 
     name rtibia
     direction -0.34202 -0.939693 0   
     length 7.54266   
     axis 0 0 -20   XYZ
    dof rx
    limits (-10.0 170.0)
 end
 begin
     id 9 
     name rfoot
     direction -0.114017 -0.31326 0.942798   
     length 2.34212  
     axis -90 -7.62852e-016 -20   XYZ
    dof rx rz
    limits (-45.0 90.0)
           (-20.0 70.0)
  end
  begin
     id 10 
     name rtoes
     direction -1.53557e-011 -4.21867e-011 1   
     length 1.16246   
     axis -90 -7.62852e-016 -20   XYZ
    dof rx
    limits (-90.0 20.0)
  end
  begin
     id 11 
     name lowerback
     direction -0.0228371 0.999155 -0.034167   
     length 2.0537   
     axis 0 0 0   XYZ
    dof rx ry rz
    limits (-20.0 45.0)
           (-30.0 30.0)
           (-30.0 30.0)
  end
  begin
     id 12 
     name upperback
     direction 0.0198981 0.999794 0.00389455   
     length 2.05302   
     axis 0 0 0   XYZ
    dof rx ry rz
    limits (-20.0 45.0)
           (-30.0 30.0)
           (-30.0 30.0)
  end
  begin
     id 13 
     name thorax
     direction 0.0304566 0.99935 0.0192987   
     length 2.05315   
     axis 0 0 0   XYZ
    dof rx ry rz
    limits (-20.0 45.0)
           (-30.0 30.0)
           (-30.0 30.0)
  end
  begin
     id 14 
     name lowerneck
     direction -0.0196762 0.99417 0.106017   
     length 1.82056   
     axis 0 0 0   XYZ
    dof rx ry rz
    limits (-20.0 45.0)
           (-30.0 30.0)
           (-30.0 30.0)
  end
  begin
     id 15 
     name upperneck
     direction 0.00517787 0.9802 -0.197944   
     length 1.83835   
     axis 0 0 0   XYZ
    dof rx ry rz
    limits (-20.0 45.0)
           (-30.0 30.0)
           (-30.0 30.0)
  end
  begin
     id 16
     name head
     direction 0.00211419 0.996945 -0.078081  
     length 1.85629  
     axis 0 0 0   XYZ
    dof rx ry rz
    limits (-20.0 45.0)
           (-30.0 30.0)
           (-30.0 30.0)
  end
  begin
     id 17 
     name lclavicle
     direction 0.930001 0.365811 -0.0357824  
     length 3.81961  
     axis 0 0 0   XYZ
    dof ry rz
    limits (-20.0 10.0)
           (0.0 20.0)
  end
  begin
     id 18 
     name lhumerus
     direction 1 -4.48968e-011 -3.06644e-027   
     length 5.14507   
     axis 180 -30 -90   XYZ
    dof rx ry rz
    limits (-60.0 90.0)
           (-90.0 90.0)
           (-90.0 90.0)
  end
  begin
     id 19
     name lradius
     direction 1 -4.48965e-011 9.06925e-028   
     length 3.50646   
     axis 180 -30 -90   XYZ
    dof rx
    limits (-10.0 170.0)
  end
  begin
     id 20
     name lwrist
     direction 1 -4.48957e-011 1.03922e-027   
     length 1.75323   
     axis -2.56395e-016 90 90   XYZ
    dof ry
    limits (-180.0 0.0)
 end
  begin
     id 21 
     name lhand
     direction 1 -4.48967e-011 2.08017e-027   
     length 0.629969   
     axis -1.32723e-015 90 90   XYZ
    dof rx rz
    limits (-90.0 90.0)
           (-45.0 45.0)
  end
  begin
     id 22 
     name lfingers
     direction 1 -4.49089e-011 4.20095e-027   
     length 0.507897   
     axis -2.6545e-015 90 90   XYZ
    dof rx
    limits (0.0 90.0)
  end
  begin
     id 23
     name lthumb
     direction 0.707107 -6.35001e-011 0.707107   
     length 0.729241   
     axis -90 45 5.05613e-014   XYZ
    dof rx rz
    limits (-45.0 45.0)
           (-45.0 45.0)
  end
  begin
     id 24 
     name rclavicle
     direction -0.881882 0.464123 -0.0829113   
     length 3.47515  
     axis 0 0 0   XYZ 
    dof ry rz
    limits (-10.0 20.0)
           (-20.0 0.0)
  end
  begin
     id 25 
     name rhumerus
     direction -1 -4.48961e-011 -1.55672e-027  
     length 5.232   
     axis 180 30 90   XYZ
    dof rx ry rz
    limits (-90.0 60.0)
           (-90.0 90.0)
           (-90.0 90.0)
  end
  begin
     id 26 
     name rradius
     direction -1 -4.48963e-011 6.18178e-029   
     length 3.65641   
     axis 180 30 90   XYZ
    dof rx
    limits (-10.0 170.0)
  end
  begin
     id 27 
     name rwrist
     direction -1 -4.48982e-011 1.04136e-027   
     length 1.8282   
     axis -2.56395e-016 -90 -90   XYZ
    dof ry
    limits (-180.0 0.0)
  end
  begin
     id 28
     name rhand
     direction -1 -4.48929e-011 2.07378e-027   
     length 0.656807   
     axis -1.32723e-015 -90 -90   XYZ
    dof rx rz
    limits (-90.0 90.0)
           (-45.0 45.0)
  end
  begin
     id 29
     name rfingers
     direction -1 -4.489e-011 4.13816e-027   
     length 0.529535   
     axis -2.6545e-015 -90 -90   XYZ
    dof rx
    limits (0.0 90.0)
  end
  begin
     id 30
     name rthumb
     direction -0.707107 -6.34843e-011 0.707107   
     length 0.760309   
     axis -90 -45 -5.05613e-014   XYZ
    dof rx rz
    limits (-45.0 45.0)
           (-45.0 45.0)
  end
:hierarchy
  begin
    root lhipjoint rhipjoint lowerback
    lhipjoint lfemur
    lfemur ltibia
    ltibia lfoot
    lfoot ltoes
    rhipjoint rfemur
    rfemur rtibia
    rtibia rfoot
    rfoot rtoes
    lowerback upperback
    upperback thorax
    thorax lowerneck lclavicle rclavicle
    lowerneck upperneck
    upperneck head
    lclavicle lhumerus
    lhumerus lradius
    lradius lwrist
    lwrist lhand lthumb
    lhand lfingers
    rclavicle rhumerus
    rhumerus rradius
    rradius rwrist
    rwrist rhand rthumb
    rhand rfingers
  end

#!OML:ASF H:\ManfredETheater\Project 1\Capture day 1\Session 1\subject.ASF
:FULLY-SPECIFIED
:DEGREES
16
root -7.86558 14.9632 40.4528 -150.86 21.6833 -183.46
lowerback 18.5114 -1.76796 2.21777
upperback 0.451493 -1.31799 3.10671
thorax -9.9011 -0.551067 2.46769
lowerneck -12.0112 5.70455 2.08254
upperneck -2.64794 7.86035 -8.08947
head 1.67499 3.91308 -2.55073
rclavicle -7.15625e-014 6.36111e-014
rhumerus -47.6913 14.041 -61.3568
rradius 73.4653
rwrist 0.68502
rhand -30.213 -2.04798
rfingers 7.12502
rthumb -3.52315 -31.9986
lclavicle -7.15625e-014 6.36111e-014
lhumerus -21.8739 -7.52908 84.3444
lradius 105.542
lwrist -0.301896
lhand -26.2117 -11.8875
lfingers 7.12502
lthumb 0.341315 18.0919
rfemur -75.9844 -12.6882 24.6988
rtibia 90.5781
rfoot -20.5179 -9.84461
rtoes -35.1464
lfemur -15.5941 -5.05955 -29.4483
ltibia 46.5445
lfoot -10.3536 -18.6665
ltoes -8.71394
17
root -7.86579 15.0273 40.0991 -151.009 23.6253 -183.566
lowerback 19.6618 -1.64172 2.13733
upperback 1.04687 -1.12669 2.81199
thorax -9.89041 -0.445469 2.15579
lowerneck -11.5633 5.85442 1.96254
upperneck -3.48544 8.06484 -8.42138
head 1.34273 4.05756 -2.64758
rclavicle 3.10104e-014 4.92986e-014
rhumerus -46.7078 15.424 -61.7356
rradius 74.0928
rwrist 0.731853
rhand -30.3431 -2.40012
rfingers 7.12502
rthumb -3.64884 -32.3486
lclavicle 3.10104e-014 4.92986e-014
lhumerus -22.4106 -6.53386 83.6478
lradius 107.371
lwrist -0.882609
lhand -27.2163 -12.2542
lfingers 7.12502
lthumb -0.628987 17.7246
rfemur -77.1591 -11.4421 24.9334
rtibia 88.1819
rfoot -21.0625 -8.41108
rtoes -36.5035
lfemur -14.6105 -4.45849 -30.7032
ltibia 45.1888
lfoot -4.48752 -19.6719
ltoes -10.3127
18
root -7.86588 15.0631 39.7541 -151.194 25.5678 -183.679
lowerback 20.924 -1.5161 2.00073
upperback 1.67745 -0.940319 2.48295
thorax -9.89189 -0.335402 1.83547
lowerneck -11.1656 5.95491 1.86004
upperneck -4.3315 8.19811 -8.76149
head 1.01747 4.17002 -2.7568
rclavicle 5.56597e-015 -5.00937e-014
rhumerus -45.4521 16.6393 -62.1176
rradius 74.5903
rwrist 0.783384
rhand -30.3941 -2.64733
rfingers 7.12502
rthumb -3.69805 -32.595
lclavicle 5.56597e-015 -5.00937e-014
lhumerus -22.9717 -5.37452 83.0009
lradius 108.606
lwrist -1.41913
lhand -28.1521 -12.3728
lfingers 7.12502
lthumb -1.53281 17.6015
rfemur -78.1819 -10.2522 25.23
rtibia 85.9021
rfoot -21.5037 -6.8913
rtoes -37.848
lfemur -14.001 -3.83862 -31.8883
ltibia 44.3275
lfoot 0.779816 -20.2673
ltoes -12.9365
19
root -7.86046 15.127 39.3975 -151.394 27.4489 -183.8
lowerback 22.2572 -1.39678 1.82761
upperback 2.34337 -0.762508 2.13029
thorax -9.88032 -0.222724 1.50618
lowerneck -10.843 5.99662 1.80026
upperneck -5.1775 8.24681 -9.11323
head 0.705797 4.24272 -2.88353
rclavicle 4.37326e-014 3.4191e-014
rhumerus -43.9362 17.6449 -62.4592
rradius 74.9762
rwrist 0.882775
rhand -30.3294 -2.83609
rfingers 7.12502
rthumb -3.63557 -32.7848
lclavicle 4.37326e-014 3.4191e-014
lhumerus -23.4891 -4.09444 82.4088
lradius 109.223
lwrist -1.73151
lhand -28.8776 -12.2424
lfingers 7.12502
lthumb -2.23354 17.7257
rfemur -78.6773 -9.24709 25.6051
rtibia 83.5503
rfoot -21.8885 -5.42516
rtoes -39.2838
lfemur -13.7075 -3.22686 -32.9533
ltibia 43.9157
lfoot 4.78497 -20.3534
ltoes -16.5321
